<svg width="18" height="18" viewBox="0 0 18 18" fill="none" xmlns="http://www.w3.org/2000/svg">
<path d="M11.25 15.75V9.74999C11.25 9.55108 11.171 9.36032 11.0303 9.21966C10.8897 9.07901 10.6989 8.99999 10.5 8.99999H7.5C7.30109 8.99999 7.11032 9.07901 6.96967 9.21966C6.82902 9.36032 6.75 9.55108 6.75 9.74999V15.75M2.25 7.49999C2.24995 7.28179 2.2975 7.06621 2.38934 6.86828C2.48118 6.67035 2.6151 6.49484 2.78175 6.35399L8.03175 1.85399C8.30249 1.62517 8.64552 1.49963 9 1.49963C9.35448 1.49963 9.69751 1.62517 9.96825 1.85399L15.2183 6.35399C15.3849 6.49484 15.5188 6.67035 15.6107 6.86828C15.7025 7.06621 15.7501 7.28179 15.75 7.49999V14.25C15.75 14.6478 15.592 15.0293 15.3107 15.3107C15.0294 15.592 14.6478 15.75 14.25 15.75H3.75C3.35218 15.75 2.97064 15.592 2.68934 15.3107C2.40804 15.0293 2.25 14.6478 2.25 14.25V7.49999Z" stroke="white" stroke-width="2" stroke-linecap="round" stroke-linejoin="round"/>
</svg>
