<svg width="18" height="18" viewBox="0 0 18 18" fill="none" xmlns="http://www.w3.org/2000/svg">
<g clip-path="url(#clip0_27_43)">
<path d="M6.8175 6.75002C6.99383 6.24877 7.34186 5.8261 7.79996 5.55686C8.25807 5.28763 8.79667 5.18922 9.32038 5.27905C9.84409 5.36888 10.3191 5.64116 10.6613 6.04766C11.0035 6.45416 11.1908 6.96866 11.19 7.50002C11.19 9.00002 8.94 9.75002 8.94 9.75002M9 12.75H9.0075M2.244 12.2565C2.35428 12.5347 2.37883 12.8395 2.3145 13.1318L1.51575 15.5993C1.49001 15.7244 1.49666 15.854 1.53508 15.9759C1.57349 16.0977 1.64239 16.2077 1.73525 16.2955C1.8281 16.3832 1.94183 16.4458 2.06565 16.4773C2.18946 16.5087 2.31927 16.508 2.44275 16.4753L5.0025 15.7268C5.27828 15.6721 5.56389 15.696 5.82675 15.7958C7.42829 16.5437 9.24252 16.7019 10.9494 16.2426C12.6562 15.7832 14.1459 14.7358 15.1558 13.285C16.1656 11.8343 16.6306 10.0736 16.4687 8.31343C16.3069 6.55328 15.5285 4.90687 14.271 3.66466C13.0136 2.42246 11.3578 1.66429 9.59578 1.52394C7.83379 1.38358 6.07885 1.87005 4.64058 2.89752C3.20231 3.92499 2.17315 5.42742 1.73467 7.13974C1.29619 8.85206 1.47657 10.6642 2.244 12.2565Z" stroke="white" stroke-width="2" stroke-linecap="round" stroke-linejoin="round"/>
</g>
<defs>
<clipPath id="clip0_27_43">
<rect width="18" height="18" fill="white"/>
</clipPath>
</defs>
</svg>
