<svg width="18" height="18" viewBox="0 0 18 18" fill="none" xmlns="http://www.w3.org/2000/svg">
<g clip-path="url(#clip0_27_30)">
<path d="M11.25 13.5H7.5M13.5 10.5H7.5M3 16.5H15C15.3978 16.5 15.7794 16.342 16.0607 16.0607C16.342 15.7794 16.5 15.3978 16.5 15V3C16.5 2.60218 16.342 2.22064 16.0607 1.93934C15.7794 1.65804 15.3978 1.5 15 1.5H6C5.60218 1.5 5.22064 1.65804 4.93934 1.93934C4.65804 2.22064 4.5 2.60218 4.5 3V15C4.5 15.3978 4.34196 15.7794 4.06066 16.0607C3.77936 16.342 3.39782 16.5 3 16.5ZM3 16.5C2.60218 16.5 2.22064 16.342 1.93934 16.0607C1.65804 15.7794 1.5 15.3978 1.5 15V8.25C1.5 7.85218 1.65804 7.47064 1.93934 7.18934C2.22064 6.90804 2.60218 6.75 3 6.75H4.5M8.25 4.5H12.75C13.1642 4.5 13.5 4.83579 13.5 5.25V6.75C13.5 7.16421 13.1642 7.5 12.75 7.5H8.25C7.83579 7.5 7.5 7.16421 7.5 6.75V5.25C7.5 4.83579 7.83579 4.5 8.25 4.5Z" stroke="white" stroke-width="2" stroke-linecap="round" stroke-linejoin="round"/>
</g>
<defs>
<clipPath id="clip0_27_30">
<rect width="18" height="18" fill="white"/>
</clipPath>
</defs>
</svg>
