<svg width="18" height="18" viewBox="0 0 18 18" fill="none" xmlns="http://www.w3.org/2000/svg">
<g clip-path="url(#clip0_27_37)">
<path d="M13.5 15C13.5 13.8065 13.0259 12.6619 12.182 11.818C11.3381 10.9741 10.1935 10.5 9 10.5M9 10.5C7.80653 10.5 6.66193 10.9741 5.81802 11.818C4.97411 12.6619 4.5 13.8065 4.5 15M9 10.5C10.6569 10.5 12 9.15685 12 7.5C12 5.84315 10.6569 4.5 9 4.5C7.34315 4.5 6 5.84315 6 7.5C6 9.15685 7.34315 10.5 9 10.5ZM16.5 9C16.5 13.1421 13.1421 16.5 9 16.5C4.85786 16.5 1.5 13.1421 1.5 9C1.5 4.85786 4.85786 1.5 9 1.5C13.1421 1.5 16.5 4.85786 16.5 9Z" stroke="white" stroke-width="2" stroke-linecap="round" stroke-linejoin="round"/>
</g>
<defs>
<clipPath id="clip0_27_37">
<rect width="18" height="18" fill="white"/>
</clipPath>
</defs>
</svg>
